# xmcd
#
# Track frame offsets:
#	150
#	23558
#	38707
#	61219
#	84712
#	95311
#	133532
#	172582
#	197348
#	216626
#	242239
#	261938
#	284568
#	296226
#	314943
#
# Disc length: 4334 seconds
#
# Revision: 0
# Processed by: cddbd v1.5.2PL0 Copyright (c) Steve Scherf et al.
# Submitted via: EZCDAudioConverter 2.1.7.1
#
DISCID=e110ec0f
DTITLE=V/A - Bad Seeds Jukebox
DYEAR=2014
DGENRE=MOJO
TTITLE0=Thurston Moore - Benediction
TTITLE1=Karen Dalton - Something On Your Mind
TTITLE2=Alan Vega, Alex Chilton and Ben Vaughn - Lover Of Love
TTITLE3=Max Roach featuring Abbey Lincoln - Driva' Man
TTITLE4=Moondog with London Brass and London Saxophonic - Bumbo
TTITLE5=Else Torp and Christoper Bowers-Broadbent - My Heart's In The Highlands
TTITLE6=Bill Callahan - One Fine Morning
TTITLE7=Dirty Three - Everything's Fucked
TTITLE8=Shilpa Ray - Lessons From Lorena
TTITLE9=Xylouris White - Darvish Two
TTITLE10=Martin Rev - Mari
TTITLE11=Adrian Younge presents Venice Dawn - Something About April
TTITLE12=The Callas - Anger
TTITLE13=Betty Davis - They Say I'm Different
TTITLE14=Chaino and His African Percussion Safari - Torture Of The Mau Mau
EXTD=
EXTT0=
EXTT1=
EXTT2=
EXTT3=
EXTT4=
EXTT5=
EXTT6=
EXTT7=
EXTT8=
EXTT9=
EXTT10=
EXTT11=
EXTT12=
EXTT13=
EXTT14=
PLAYORDER=
